<?xml version="1.0" encoding="UTF-8"?>
<svg xmlns="http://www.w3.org/2000/svg" viewBox="0 0 512 512">
  <rect width="512" height="512" rx="96" fill="#000000"/>
  <g fill="#ffffff">
    <rect x="80" y="200" width="352" height="160" rx="24"/>
    <rect x="112" y="232" width="128" height="96" rx="12" fill="#000000"/>
    <circle cx="352" cy="280" r="24"/>
    <rect x="304" y="232" width="24" height="96" rx="8"/>
    <rect x="352" y="232" width="24" height="96" rx="8"/>
    <path d="M256 96c-70.7 0-128 57.3-128 128h32c0-53 43-96 96-96s96 43 96 96h32c0-70.7-57.3-128-128-128z"/>
    <path d="M256 144c-44.2 0-80 35.8-80 80h32c0-26.5 21.5-48 48-48s48 21.5 48 48h32c0-44.2-35.8-80-80-80z"/>
  </g>
</svg>
